<?xml version="1.0" encoding="utf-8"?>
<!-- Generator: Adobe Illustrator 19.2.1, SVG Export Plug-In . SVG Version: 6.00 Build 0)  -->
<svg version="1.1" id="Layer_1" xmlns="http://www.w3.org/2000/svg" xmlns:xlink="http://www.w3.org/1999/xlink" x="0px" y="0px"
	 viewBox="0 0 814 350" style="enable-background:new 0 0 814 350;" xml:space="preserve">
<style type="text/css">
	.st0{fill:#FFFFFF;}
</style>
<title>CushCash-Logo2</title>
<g>
	<path class="st0" d="M437.5,51.5c26,0,45.3,13,53.6,35.3h-13.7c-6.5-15.5-20.1-25.1-40-25.1c-25.5,0-44.9,18.8-44.9,49.3
		c0,30.3,19.5,49.1,44.9,49.1c19.8,0,33.5-9.7,40-24.8h13.7c-8.3,22-27.6,35-53.6,35c-32.3,0-56.9-24.3-56.9-59.3
		S405.2,51.5,437.5,51.5z"/>
	<path class="st0" d="M513.8,52.8h11.7V126c0,24.1,12.7,34,30.8,34s30.5-9.8,30.5-34V52.8h11.7v73.1c0,30.8-18.6,44.4-42.3,44.4
		c-23.6,0-42.3-13.7-42.3-44.4L513.8,52.8L513.8,52.8z"/>
	<path class="st0" d="M659.6,170.3c-23.3,0-38.6-13.3-39.3-31.1h12.3c1,9.7,8.2,21.3,27,21.3c16.2,0,25.6-9.5,25.6-21.5
		c0-34.3-63.9-12.7-63.9-56.4c0-18,14.8-31.1,37.3-31.1c22.1,0,35.5,12.3,37.5,28.3h-12.6c-1.3-8.1-9.2-18.1-25.3-18.3
		c-13.7-0.2-25,7.3-25,20.8c0,33.6,63.9,13,63.9,56.3C697.1,154.3,684.3,170.3,659.6,170.3z"/>
	<path class="st0" d="M794.3,114.7h-63.1v54.5h-11.7V52.8h11.7v52.3h63.1V52.8h11.7v116.4h-11.7V114.7L794.3,114.7z"/>
	<path class="st0" d="M437.4,182.1c24.7,0,44.3,12.4,52.8,34.5h-17.8c-6.2-13.7-18.3-21.4-35-21.4c-23.8,0-41.7,17.3-41.7,45.2
		c0,27.8,17.8,45.1,41.7,45.1c16.7,0,28.7-7.7,35-21.2h17.8c-8.5,21.9-28.1,34.1-52.8,34.1c-31.9,0-56.8-23.8-56.8-58
		S405.6,182.1,437.4,182.1z"/>
	<path class="st0" d="M579.5,272.1h-49.7l-9.1,25.3h-15.7l41.2-113.2h17.2l41,113.2h-15.7L579.5,272.1z M554.7,202.5L534.1,260h41.2
		L554.7,202.5z"/>
	<path class="st0" d="M658.5,298.5c-22.9,0-39-12.7-39.4-31.5H635c1,9.5,7.7,18.9,23.5,18.9c14.4,0,22.9-8.2,22.9-18.9
		c0-30.7-61.6-11.1-61.6-53.4c0-18.8,15.2-31.5,37.7-31.5c21.7,0,35.9,11.9,37.7,29.2h-16.3c-1-7.7-8.2-16.3-22-16.5
		c-12.3-0.3-21.9,6-21.9,18.3c0,29.4,61.4,11.1,61.4,53.3C696.3,282.5,683.1,298.5,658.5,298.5z"/>
	<path class="st0" d="M791.1,245.8h-58v51.6h-14.9V183.5h14.9v50h58v-50h14.9v113.9h-14.9V245.8L791.1,245.8z"/>
</g>
<path class="st0" d="M169.1,338.1C79.2,338.1,6,264.9,6,175S79.2,11.9,169.1,11.9S332.3,85.1,332.3,175S259.1,338.1,169.1,338.1z
	 M169.1,25.2C86.6,25.2,19.4,92.4,19.4,175s67.2,149.8,149.8,149.8S318.9,257.6,318.9,175S251.7,25.2,169.1,25.2z"/>
<path class="st0" d="M169.1,36.3c-19.3,0-38.4,4-56,11.8c-3.5,1.5-6.8,3.2-10.2,5C59.8,76.6,30.4,122.5,30.4,175
	c0,76.5,62.2,138.7,138.7,138.7c19.3,0,38.4-4,56-11.8c3.5-1.5,6.8-3.2,10.1-5c43.2-23.5,72.6-69.4,72.6-121.9
	C307.8,98.5,245.6,36.3,169.1,36.3z M228.9,281.3l-86.1-55l92.5-59.3v-23.1L123,216.5v19.4l84.8,54.8c-12.5,4.2-25.6,6.3-38.7,6.3
	c-67.3,0-122-54.7-122-122c0-45.6,25.1-85.4,62.2-106.3l86.2,55.3L103,183v23.1l112.2-72.5v-19.4l-84.8-54.8
	c12.5-4.2,25.6-6.3,38.7-6.3c67.3,0,122,54.7,122,122C291.1,220.6,266,260.4,228.9,281.3z"/>
</svg>
