<svg id="Layer_1" data-name="Layer 1" xmlns="http://www.w3.org/2000/svg" viewBox="0 0 600 600"><defs><style>.cls-1{fill:#fff;}</style></defs><title>CushCash-Logo</title><path class="cls-1" d="M300,595C137.34,595,5,462.66,5,300S137.34,5,300,5,595,137.34,595,300,462.66,595,300,595Zm0-565.82C150.67,29.18,29.18,150.67,29.18,300S150.67,570.82,300,570.82,570.82,449.33,570.82,300,449.33,29.18,300,29.18Z"/><path class="cls-1" d="M300,49.17A248.94,248.94,0,0,0,198.75,70.54q-9.38,4.12-18.37,9C102.29,122.12,49.16,205,49.16,300,49.16,438.32,161.7,550.83,300,550.83a249,249,0,0,0,101.27-21.37q9.38-4.13,18.34-9C497.72,477.88,550.82,395,550.82,300,550.82,161.68,438.31,49.17,300,49.17ZM408.06,492.23L252.3,392.84,419.6,285.52v-41.7L216.64,375v35.06l153.31,99.15a219.7,219.7,0,0,1-70,11.36c-121.64,0-220.61-99-220.61-220.61,0-82.38,45.39-154.37,112.51-192.23l155.82,99.94L180.38,314.48v41.7L383.34,225V189.91L230,90.75a219.7,219.7,0,0,1,70-11.36c121.64,0,220.61,99,220.61,220.61C520.6,382.41,475.18,454.4,408.06,492.23Z"/></svg>