<?xml version="1.0" encoding="UTF-8"?>
<svg width="11px" height="10px" viewBox="0 0 11 10" version="1.1" xmlns="http://www.w3.org/2000/svg" xmlns:xlink="http://www.w3.org/1999/xlink">
    <!-- Generator: Sketch 52.4 (67378) - http://www.bohemiancoding.com/sketch -->
    <title>downloadBTN Copy</title>
    <desc>Created with Sketch.</desc>
    <g id="Page-1" stroke="none" stroke-width="1" fill="none" fill-rule="evenodd">
        <g id="Coinymous-Landing-Page" transform="translate(-712.000000, -2262.000000)" fill="#CF6766" fill-rule="nonzero">
            <g id="Group-4" transform="translate(712.000000, 2261.000000)">
                <g id="downloadBTN-Copy" transform="translate(0.000000, 1.090909)">
                    <path d="M8.17338545,4.97343405 C8.28827759,4.86937653 8.28827759,4.70555624 8.17338545,4.60149871 C8.0623748,4.49744119 7.87761582,4.49744119 7.76686394,4.60149871 L5.68457328,6.4839087 L5.68457328,0.264127995 C5.68457328,0.119056807 5.55726037,4.17443857e-14 5.39708416,4.17443857e-14 C5.23690796,4.17443857e-14 5.10545479,0.119056807 5.10545479,0.264127995 L5.10545479,6.4839087 L3.02730439,4.60149871 C2.91241225,4.49744119 2.7273945,4.49744119 2.61664262,4.60149871 C2.50175048,4.70555624 2.50175048,4.86937653 2.61664262,4.97343405 L5.19188266,7.30582252 C5.30289331,7.40636459 5.48765229,7.40636459 5.60254443,7.30582252 L8.17338545,4.97343405 Z M10.2145323,6.57751954 C10.2145323,6.41100755 10.3418452,6.27865876 10.5020214,6.27865876 C10.6621976,6.27865876 10.7936508,6.41100755 10.7936508,6.57751954 L10.7936508,9.51501701 C10.7936508,9.68152901 10.6621976,9.81818182 10.5020214,9.81818182 L0.287489117,9.81818182 C0.127312912,9.81818182 0,9.68152901 0,9.51501701 L0,6.57751954 C0,6.41100755 0.127312912,6.27865876 0.287489117,6.27865876 C0.447665321,6.27865876 0.579118491,6.41100755 0.579118491,6.57751954 L0.579118491,9.21615624 L10.2145323,9.21615624 L10.2145323,6.57751954 Z" id="Shape"></path>
                </g>
            </g>
        </g>
    </g>
</svg>