<?xml version="1.0" encoding="UTF-8"?>
<svg width="11px" height="10px" viewBox="0 0 11 10" version="1.1" xmlns="http://www.w3.org/2000/svg" xmlns:xlink="http://www.w3.org/1999/xlink">
    <!-- Generator: Sketch 52.4 (67378) - http://www.bohemiancoding.com/sketch -->
    <title>downloadBTN Copy 3</title>
    <desc>Created with Sketch.</desc>
    <g id="Page-1" stroke="none" stroke-width="1" fill="none" fill-rule="evenodd">
        <g id="Coinymous-Landing-Page" transform="translate(-1026.000000, -2262.000000)" fill="#CF6766" fill-rule="nonzero">
            <g id="Group-2" transform="translate(1026.000000, 2261.000000)">
                <g id="downloadBTN-Copy-3" transform="translate(0.000000, 1.090909)">
                    <path d="M8.18307875,4.97343405 C8.29810714,4.86937653 8.29810714,4.70555624 8.18307875,4.60149871 C8.07193644,4.49744119 7.88695834,4.49744119 7.77607511,4.60149871 L5.69131495,6.4839087 L5.69131495,0.264127995 C5.69131495,0.119056807 5.56385105,4.17443857e-14 5.40348488,4.17443857e-14 C5.24311871,4.17443857e-14 5.11150965,0.119056807 5.11150965,0.264127995 L5.11150965,6.4839087 L3.03089464,4.60149871 C2.91586625,4.49744119 2.73062908,4.49744119 2.61974585,4.60149871 C2.50471745,4.70555624 2.50471745,4.86937653 2.61974585,4.97343405 L5.19804002,7.30582252 C5.30918232,7.40636459 5.49416042,7.40636459 5.60918882,7.30582252 L8.18307875,4.97343405 Z M10.2266463,6.57751954 C10.2266463,6.41100755 10.3541102,6.27865876 10.5144764,6.27865876 C10.6748425,6.27865876 10.8064516,6.41100755 10.8064516,6.57751954 L10.8064516,9.51501701 C10.8064516,9.68152901 10.6748425,9.81818182 10.5144764,9.81818182 L0.287830067,9.81818182 C0.1274639,9.81818182 0,9.68152901 0,9.51501701 L0,6.57751954 C0,6.41100755 0.1274639,6.27865876 0.287830067,6.27865876 C0.448196233,6.27865876 0.579805301,6.41100755 0.579805301,6.57751954 L0.579805301,9.21615624 L10.2266463,9.21615624 L10.2266463,6.57751954 Z" id="Shape"></path>
                </g>
            </g>
        </g>
    </g>
</svg>