<?xml version="1.0" encoding="UTF-8"?>
<svg width="11px" height="10px" viewBox="0 0 11 10" version="1.1" xmlns="http://www.w3.org/2000/svg" xmlns:xlink="http://www.w3.org/1999/xlink">
    <!-- Generator: Sketch 52.4 (67378) - http://www.bohemiancoding.com/sketch -->
    <title>downloadBTN Copy 2</title>
    <desc>Created with Sketch.</desc>
    <g id="Page-1" stroke="none" stroke-width="1" fill="none" fill-rule="evenodd">
        <g id="Coinymous-Landing-Page" transform="translate(-865.000000, -2262.000000)" fill="#CF6766" fill-rule="nonzero">
            <g id="Group-3" transform="translate(865.000000, 2261.000000)">
                <g id="downloadBTN-Copy-2" transform="translate(0.000000, 1.090909)">
                    <path d="M8.12112595,4.97343405 C8.23528349,4.86937653 8.23528349,4.70555624 8.12112595,4.60149871 C8.01082509,4.49744119 7.82724743,4.49744119 7.71720368,4.60149871 L5.6482269,6.4839087 L5.6482269,0.264127995 C5.6482269,0.119056807 5.52172801,4.17443857e-14 5.36257595,4.17443857e-14 C5.20342389,4.17443857e-14 5.07281122,0.119056807 5.07281122,0.264127995 L5.07281122,6.4839087 L3.00794822,4.60149871 C2.89379069,4.49744119 2.70995592,4.49744119 2.59991217,4.60149871 C2.48575463,4.70555624 2.48575463,4.86937653 2.59991217,4.97343405 L5.15868648,7.30582252 C5.26898734,7.40636459 5.452565,7.40636459 5.56672254,7.30582252 L8.12112595,4.97343405 Z M10.149222,6.57751954 C10.149222,6.41100755 10.2757209,6.27865876 10.4348729,6.27865876 C10.594025,6.27865876 10.7246377,6.41100755 10.7246377,6.57751954 L10.7246377,9.51501701 C10.7246377,9.68152901 10.594025,9.81818182 10.4348729,9.81818182 L0.285650951,9.81818182 C0.126498891,9.81818182 0,9.68152901 0,9.51501701 L0,6.57751954 C0,6.41100755 0.126498891,6.27865876 0.285650951,6.27865876 C0.444803011,6.27865876 0.575415687,6.41100755 0.575415687,6.57751954 L0.575415687,9.21615624 L10.149222,9.21615624 L10.149222,6.57751954 Z" id="Shape"></path>
                </g>
            </g>
        </g>
    </g>
</svg>