<?xml version="1.0" encoding="UTF-8"?>
<svg width="19px" height="19px" viewBox="0 0 19 19" version="1.1" xmlns="http://www.w3.org/2000/svg" xmlns:xlink="http://www.w3.org/1999/xlink">
    <!-- Generator: Sketch 52.4 (67378) - http://www.bohemiancoding.com/sketch -->
    <title>Icon_FAQ+</title>
    <desc>Created with Sketch.</desc>
    <g id="Page-1" stroke="none" stroke-width="1" fill="none" fill-rule="evenodd">
        <g id="Coinymous-Landing-Page" transform="translate(-690.000000, -4119.000000)" fill="#313A4A">
            <g id="Icon_FAQ+" transform="translate(690.000000, 4119.000000)">
                <path d="M9.5,19 C4.26151072,19 0,14.7380147 0,9.49969413 C0,4.26137351 4.26151072,0 9.5,0 C14.7384893,0 19,4.26137351 19,9.49969413 C19.0006118,14.7380147 14.7384893,19 9.5,19 Z M9.5,1.08522489 C4.85981068,1.08522489 1.08525984,4.86026595 1.08525984,9.49969413 C1.08525984,14.1391223 4.85981068,17.9135516 9.5,17.9135516 C14.1395776,17.9135516 17.9141284,14.1391223 17.9141284,9.49969413 C17.9141284,4.86026595 14.1395776,1.08522489 9.5,1.08522489 Z" id="Shape" fill-rule="nonzero"></path>
                <path d="M13.4306398,10 L5.57000214,10 C5.25547393,10 5,9.77690141 5,9.50028169 C5,9.22422535 5.25483204,9 5.57000214,9 L13.4306398,9 C13.745168,9 14,9.22422535 14,9.50028169 C14,9.77690141 13.7458099,10 13.4306398,10 Z" id="Path"></path>
                <path d="M9.50028169,14 C9.22422535,14 9,13.745168 9,13.4306398 L9,5.57000214 C9,5.25547393 9.22422535,5 9.50028169,5 C9.77633803,5 10,5.25547393 10,5.57000214 L10,13.4306398 C10,13.7458099 9.77690141,14 9.50028169,14 Z" id="Path"></path>
            </g>
        </g>
    </g>
</svg>