<?xml version="1.0" encoding="UTF-8"?>
<svg width="11px" height="10px" viewBox="0 0 11 10" version="1.1" xmlns="http://www.w3.org/2000/svg" xmlns:xlink="http://www.w3.org/1999/xlink">
    <!-- Generator: Sketch 52.4 (67378) - http://www.bohemiancoding.com/sketch -->
    <title>Icon-Download</title>
    <desc>Created with Sketch.</desc>
    <g id="Page-1" stroke="none" stroke-width="1" fill="none" fill-rule="evenodd">
        <g id="Coinymous-Landing-Page" transform="translate(-556.000000, -2262.000000)" fill="#CF6766" fill-rule="nonzero">
            <g id="Group-5" transform="translate(556.000000, 2261.000000)">
                <g id="Icon-Download" transform="translate(0.000000, 1.090909)">
                    <path d="M8.19308985,4.97343405 C8.30825897,4.86937653 8.30825897,4.70555624 8.19308985,4.60149871 C8.08181158,4.49744119 7.89660718,4.49744119 7.7855883,4.60149871 L5.69827765,6.4839087 L5.69827765,0.264127995 C5.69827765,0.119056807 5.57065781,4.17443857e-14 5.41009546,4.17443857e-14 C5.2495331,4.17443857e-14 5.11776302,0.119056807 5.11776302,0.264127995 L5.11776302,6.4839087 L3.03460261,4.60149871 C2.91943349,4.49744119 2.7339697,4.49744119 2.62295082,4.60149871 C2.5077817,4.70555624 2.5077817,4.86937653 2.62295082,4.97343405 L5.20439925,7.30582252 C5.31567753,7.40636459 5.50088193,7.40636459 5.61605105,7.30582252 L8.19308985,4.97343405 Z M10.2391575,6.57751954 C10.2391575,6.41100755 10.3667773,6.27865876 10.5273397,6.27865876 C10.6879021,6.27865876 10.8196721,6.41100755 10.8196721,6.57751954 L10.8196721,9.51501701 C10.8196721,9.68152901 10.6879021,9.81818182 10.5273397,9.81818182 L0.288182195,9.81818182 C0.127619838,9.81818182 0,9.68152901 0,9.51501701 L0,6.57751954 C0,6.41100755 0.127619838,6.27865876 0.288182195,6.27865876 C0.448744553,6.27865876 0.58051463,6.41100755 0.58051463,6.57751954 L0.58051463,9.21615624 L10.2391575,9.21615624 L10.2391575,6.57751954 Z" id="Shape"></path>
                </g>
            </g>
        </g>
    </g>
</svg>