<?xml version="1.0" encoding="UTF-8"?>
<svg width="16px" height="16px" viewBox="0 0 16 16" version="1.1" xmlns="http://www.w3.org/2000/svg" xmlns:xlink="http://www.w3.org/1999/xlink">
    <!-- Generator: Sketch 52.4 (67378) - http://www.bohemiancoding.com/sketch -->
    <title>Icon-Phone</title>
    <desc>Created with Sketch.</desc>
    <g id="Page-1" stroke="none" stroke-width="1" fill="none" fill-rule="evenodd">
        <g id="Coinymous-Landing-Page" transform="translate(-276.000000, -4835.000000)" fill="#8EAEBD" fill-rule="nonzero">
            <g id="Icon-Phone" transform="translate(276.000000, 4835.000000)">
                <path d="M15.18,12.36 L12.86,10 C12.387603,9.52826399 11.622397,9.52826399 11.15,10 L10,11.24 L9.77,11.11 C8.73921181,10.5865752 7.79215074,9.9125104 6.96,9.11 C6.15690661,8.27460592 5.48283214,7.32416092 4.96,6.29 C4.96,6.21 4.87,6.14 4.83,6.07 L5.62,5.28 L6,4.9 C6.47173601,4.42760301 6.47173601,3.66239699 6,3.19 L3.65,0.84 C3.42483775,0.614054578 3.11898177,0.487053717 2.8,0.487053717 C2.48101823,0.487053717 2.17516225,0.614054578 1.95,0.84 L1.3,1.5 C1.07563307,1.78930525 0.893792333,2.10921024 0.76,2.45 C0.639959715,2.77184915 0.562634113,3.10804743 0.53,3.45 C0.22,5.99 1.38,8.31 4.53,11.45 C8.88,15.8 12.39,15.45 12.53,15.45 C12.8728371,15.4166832 13.2093856,15.3359115 13.53,15.21 C13.8703875,15.0796833 14.1903145,14.9011977 14.48,14.68 L15.15,14.03 C15.6163027,13.5553677 15.6163027,12.7946323 15.15,12.32 L15.18,12.36 Z" id="Shape"></path>
            </g>
        </g>
    </g>
</svg>