<?xml version="1.0" encoding="UTF-8"?>
<svg width="20px" height="14px" viewBox="0 0 20 14" version="1.1" xmlns="http://www.w3.org/2000/svg" xmlns:xlink="http://www.w3.org/1999/xlink">
    <!-- Generator: Sketch 52.4 (67378) - http://www.bohemiancoding.com/sketch -->
    <title>Icon-Mail</title>
    <desc>Created with Sketch.</desc>
    <g id="Page-1" stroke="none" stroke-width="1" fill="none" fill-rule="evenodd">
        <g id="Coinymous-Landing-Page" transform="translate(-274.000000, -4874.000000)" fill="#8EAEBD" fill-rule="nonzero">
            <g id="Icon-Mail" transform="translate(274.000000, 4874.000000)">
                <path d="M10,8.2 C10.1,8.2 10.3,8.2 10.4,8.1 C10.4,8.1 10.4,8.1 10.4,8.1 L10.7,7.8 L19,0.9 C19,0.9 19,0.9 18.9,0.9 L0.9,0.9 C0.9,0.9 0.9,0.9 0.8,0.9 L9.5,8.1 C9.7,8.2 9.9,8.2 10,8.2 Z M0.8,1.8 L0.8,12 L7.1,6.9 L0.8,1.8 Z M12.9,7 L19.1,12 L19.1,1.9 L12.9,7 Z M10.9,8.7 C10.7,8.9 10.4,9 10,9 C9.7,9 9.3,8.9 9.1,8.7 L7.7,7.5 L0.8,13 C0.8,13.1 0.8,13.1 0.9,13.1 L19.1,13.1 C19.2,13.1 19.2,13.1 19.2,13 L12.4,7.5 L10.9,8.7 Z" id="Shape"></path>
            </g>
        </g>
    </g>
</svg>