<?xml version="1.0" encoding="UTF-8"?>
<svg width="65px" height="63px" viewBox="0 0 65 63" version="1.1" xmlns="http://www.w3.org/2000/svg" xmlns:xlink="http://www.w3.org/1999/xlink">
    <!-- Generator: Sketch 52.4 (67378) - http://www.bohemiancoding.com/sketch -->
    <title>Icon-Feature3</title>
    <desc>Created with Sketch.</desc>
    <g id="Page-1" stroke="none" stroke-width="1" fill="none" fill-rule="evenodd">
        <g id="Coinymous-Landing-Page" transform="translate(-948.000000, -1162.000000)" fill="#FFFFFF">
            <g id="Icon-Feature3" transform="translate(948.000000, 1162.000000)">
                <path d="M55.2122756,20.7760151 C55.2115971,20.7760151 55.2107829,20.7760151 55.2101044,20.7760151 L0.930354906,20.7760151 C0.417139874,20.775472 0.000542797195,21.1912177 -2.99416434e-10,21.704722 C-2.99416434e-10,21.7054009 -2.99416434e-10,21.7062155 -2.99416434e-10,21.7068944 L-2.99416434e-10,47.7758599 C-0.000542797794,48.2893642 0.414968684,48.7061961 0.928183716,48.7067392 C0.928862213,48.7067392 0.929676409,48.7067392 0.930354906,48.7067392 L37.8405846,48.7067392 C38.3543424,48.7067392 38.7709395,48.2899073 38.7709395,47.7758599 C38.7709395,47.2618125 38.3543424,46.8449806 37.8405846,46.8449806 L1.86070981,46.8449806 L1.86070981,22.6377737 L54.2797495,22.6377737 L54.2797495,24.9655151 C54.2792067,25.4790194 54.6947182,25.8958513 55.2079332,25.8963944 C55.2086117,25.8963944 55.2094259,25.8963944 55.2101044,25.8963944 C55.7233194,25.8969375 56.1399165,25.4811918 56.1404593,24.9676875 C56.1404593,24.9670086 56.1404593,24.966194 56.1404593,24.9655151 L56.1404593,21.7068944 C56.1410021,21.1933901 55.7254906,20.776694 55.2122756,20.7760151 Z" id="Path"></path>
                <path d="M48.9006263,16.4539978 L5.47682672,6.67813578 C5.23582463,6.62423276 4.9832881,6.66795259 4.77444676,6.79979095 C4.56587683,6.93271552 4.41837161,7.14276078 4.36409186,7.38417026 L2.19290188,17.1600323 C2.08135699,17.6621315 2.39780793,18.1596142 2.89962422,18.271222 C3.4014405,18.3828297 3.89864301,18.0662004 4.01018789,17.5641013 L5.97837161,8.69956681 L48.4924426,18.2701358 C48.5597495,18.28575 48.6285491,18.2934892 48.69762,18.2929461 C49.2113779,18.2919957 49.6271608,17.8744849 49.6263466,17.3604375 C49.6255324,16.925819 49.3242797,16.5497198 48.9006263,16.4539978 Z" id="Path"></path>
                <path d="M43.6278914,11.0674978 L17.5736117,0.205428879 C17.1207829,0.0165646552 16.5990188,0.210588362 16.3794572,0.6496875 L14.2082672,4.99451509 C13.9630585,5.44827802 14.1318685,6.01514224 14.5855115,6.26048922 C15.0390188,6.50583621 15.6055637,6.33693103 15.8507724,5.88303233 C15.8604071,5.86524569 15.869499,5.84705172 15.8779123,5.82858621 L15.8779123,5.83075862 L17.6593737,2.26365517 L42.9092276,12.7900862 C43.3847182,12.9885905 43.9310438,12.7640172 44.1294363,12.2882586 C44.3278288,11.8127716 44.103382,11.2661379 43.6278914,11.0674978 Z" id="Path"></path>
                <path d="M44.285762,25.1208427 L35.6693946,25.1208427 C35.1556367,25.1208427 34.7390397,25.5376746 34.7390397,26.051722 C34.7390397,26.5657694 35.1556367,26.9826013 35.6693946,26.9826013 L44.285762,26.9826013 C44.7995198,26.9826013 45.2161169,26.5657694 45.2161169,26.051722 C45.2161169,25.5376746 44.7995198,25.1208427 44.285762,25.1208427 Z" id="Path"></path>
                <path d="M26.9846347,25.1827565 C21.7085073,25.1827565 17.4313987,29.4622759 17.4313987,34.7413772 C17.4368267,40.0181703 21.7108142,44.2945668 26.9846347,44.2999978 C32.260762,44.2999978 36.5378706,40.0204784 36.5378706,34.7413772 C36.5378706,29.4622759 32.260762,25.1827565 26.9846347,25.1827565 Z M26.9846347,42.5620668 C22.6677662,42.5620668 19.1683507,39.0606789 19.1683507,34.7413772 C19.1731002,30.4241121 22.6698017,26.9254397 26.9846347,26.9206875 C31.3015031,26.9206875 34.8009186,30.4220754 34.8009186,34.7413772 C34.8009186,39.0606789 31.3015031,42.5620668 26.9846347,42.5620668 Z" id="Shape" fill-rule="nonzero"></path>
                <path d="M53.0389144,28.2241358 C47.285261,28.2241358 41.0973695,29.5840668 41.0973695,32.5689634 L41.0973695,58.6379289 C41.0973695,61.6228254 47.285261,62.9827565 53.0389144,62.9827565 C58.7925678,62.9827565 64.9804593,61.6228254 64.9804593,58.6379289 L64.9804593,32.5689634 C64.9804593,29.5840668 58.7925678,28.2241358 53.0389144,28.2241358 Z M62.8092693,58.6216358 C62.6453445,59.2244806 59.3896451,60.8103427 53.0389144,60.8103427 C46.6881837,60.8103427 43.4324843,59.2244806 43.2685595,58.6379289 L43.2685595,56.9304116 C45.5787056,58.0948254 49.394572,58.6379289 53.0389144,58.6379289 C56.6832568,58.6379289 60.5002088,58.0893944 62.8092693,56.9293254 L62.8092693,58.6216358 Z M62.8092693,54.2768082 C62.6453445,54.879653 59.3896451,56.4655151 53.0389144,56.4655151 C46.6881837,56.4655151 43.4324843,54.879653 43.2685595,54.2931013 L43.2685595,52.5855841 C45.5787056,53.7499978 49.394572,54.2931013 53.0389144,54.2931013 C56.6832568,54.2931013 60.5002088,53.7445668 62.8092693,52.5844978 L62.8092693,54.2768082 Z M62.8092693,49.9319806 C62.6453445,50.5348254 59.3896451,52.1206875 53.0389144,52.1206875 C46.6881837,52.1206875 43.4324843,50.5348254 43.2685595,49.9482737 L43.2685595,48.2407565 C45.5787056,49.4051703 49.394572,49.9482737 53.0389144,49.9482737 C56.6832568,49.9482737 60.5002088,49.3997392 62.8092693,48.2396703 L62.8092693,49.9319806 Z M62.8092693,45.587153 C62.6453445,46.1899978 59.3896451,47.7758599 53.0389144,47.7758599 C46.6881837,47.7758599 43.4324843,46.1899978 43.2685595,45.6034461 L43.2685595,43.8959289 C45.5787056,45.0603427 49.394572,45.6034461 53.0389144,45.6034461 C56.6832568,45.6034461 60.5002088,45.0549116 62.8092693,43.8948427 L62.8092693,45.587153 Z M62.8092693,41.2423254 C62.6453445,41.8451703 59.3896451,43.4310323 53.0389144,43.4310323 C46.6881837,43.4310323 43.4324843,41.8451703 43.2685595,41.2586185 L43.2685595,39.5511013 C45.5787056,40.7100841 49.394572,41.2586185 53.0389144,41.2586185 C56.6832568,41.2586185 60.5002088,40.7100841 62.8092693,39.5500151 L62.8092693,41.2423254 Z M62.8092693,36.8974978 C62.6453445,37.5003427 59.3896451,39.0862047 53.0389144,39.0862047 C46.6881837,39.0862047 43.4324843,37.5003427 43.2685595,36.9137909 L43.2685595,35.2062737 C45.5787056,36.3652565 49.394572,36.9137909 53.0389144,36.9137909 C56.6832568,36.9137909 60.5002088,36.3652565 62.8092693,35.2051875 L62.8092693,36.8974978 Z M53.0389144,34.7413772 C46.6979541,34.7413772 43.4433403,33.1598599 43.2685595,32.5885151 L43.2685595,32.5819978 C43.4433403,31.9769806 46.6979541,30.3965496 53.0389144,30.3965496 C59.3353653,30.3965496 62.5921503,31.9541703 62.8092693,32.5689634 C62.5921503,33.1837565 59.3353653,34.7413772 53.0389144,34.7413772 Z" id="Shape" fill-rule="nonzero"></path>
                <path d="M18.2998747,42.4990668 L10.0938622,42.4990668 L6.20308977,38.2411358 L6.20308977,31.1807909 L10.4998747,26.9826013 L18.2998747,26.9826013 C18.8136326,26.9826013 19.2302296,26.5657694 19.2302296,26.051722 C19.2302296,25.5376746 18.8136326,25.1208427 18.2998747,25.1208427 L10.1220877,25.1208427 C9.87891441,25.1202996 9.64510438,25.2150711 9.47073069,25.3847909 L4.62137787,30.1173944 C4.44021921,30.3292047 4.34088727,30.5989914 4.34129436,30.8777392 L4.34129436,38.6028427 C4.34129436,38.8351552 4.42800626,39.0590496 4.58446764,39.2306703 L8.99524008,44.0577737 C9.17151357,44.250847 9.42092902,44.3609612 9.68242171,44.3608254 L18.2998747,44.3608254 C18.8136326,44.3608254 19.2302296,43.9439935 19.2302296,43.4299461 C19.2302296,42.9158987 18.8137683,42.4990668 18.2998747,42.4990668 Z" id="Path"></path>
                <path d="M27.5274322,33.6551703 L26.4418372,33.6551703 C26.1042171,33.6551703 25.8990397,33.4661703 25.8990397,33.3836185 C25.8990397,33.3010668 26.1042171,33.1120668 26.4418372,33.1120668 L29.1558246,33.1120668 C29.7553445,33.1120668 30.2414196,32.6257177 30.2414196,32.0258599 C30.2414196,31.4260022 29.7553445,30.939653 29.1558246,30.939653 L28.0702296,30.939653 C28.0702296,30.3397953 27.5841545,29.8534461 26.9846347,29.8534461 C26.3851148,29.8534461 25.8990397,30.3397953 25.8990397,30.939653 L25.8990397,30.9885323 C24.6949791,31.1586595 23.7828079,32.162722 23.7278497,33.3781875 C23.8056054,34.8023405 25.0179436,35.8965582 26.4418372,35.8275841 L27.5274322,35.8275841 C27.8650522,35.8275841 28.0702296,36.0165841 28.0702296,36.0991358 C28.0702296,36.1816875 27.8650522,36.3706875 27.5274322,36.3706875 L24.8134447,36.3706875 C24.2139248,36.3706875 23.7278497,36.8570366 23.7278497,37.4568944 C23.7278497,38.0567522 24.2139248,38.5431013 24.8134447,38.5431013 L25.8990397,38.5431013 C25.8990397,39.1429591 26.3851148,39.6293082 26.9846347,39.6293082 C27.5841545,39.6293082 28.0702296,39.1429591 28.0702296,38.5431013 L28.0702296,38.494222 C29.2742902,38.3240948 30.1864614,37.3200323 30.2414196,36.1045668 C30.1636639,34.6804138 28.9513257,33.5861961 27.5274322,33.6551703 Z" id="Path"></path>
            </g>
        </g>
    </g>
</svg>