<?xml version="1.0" encoding="UTF-8"?>
<svg width="62px" height="63px" viewBox="0 0 62 63" version="1.1" xmlns="http://www.w3.org/2000/svg" xmlns:xlink="http://www.w3.org/1999/xlink">
    <!-- Generator: Sketch 52.4 (67378) - http://www.bohemiancoding.com/sketch -->
    <title>Icon-Feature1</title>
    <desc>Created with Sketch.</desc>
    <g id="Page-1" stroke="none" stroke-width="1" fill="none" fill-rule="evenodd">
        <g id="Coinymous-Landing-Page" transform="translate(-355.000000, -1162.000000)" fill="#FFFFFF">
            <g id="Icon-Feature1" transform="translate(355.000000, 1162.000000)">
                <path d="M38.6672293,7.5 L40,6.10258847 C36.6917824,2.63247051 31.3082176,2.63247051 28,6.10258847 L29.3327707,7.5 C31.9066983,4.80219927 36.0933017,4.80219927 38.6672293,7.5 Z" id="Path"></path>
                <path d="M52,17.5 C52,15.2939453 50.2060547,13.5 48,13.5 L48,15.5 C49.1030274,15.5 50,16.3969726 50,17.5 C50,18.6030274 49.1030274,19.5 48,19.5 L48,21.5 C50.2060547,21.5 52,19.7060547 52,17.5 Z" id="Path"></path>
                <path d="M57,16.5 L55.7368164,16.5 C54.8452149,13.0551758 51.7202149,10.5 48,10.5 C47.5517578,10.5 47.1040039,10.538086 46.663086,10.612793 C45.334961,4.77587888 40.0732423,0.5 34,0.5 C29.7949219,0.5 25.9169923,2.5009765 23.4711914,5.894043 C22.6728515,5.631836 21.8452149,5.5 21,5.5 C17.737793,5.5 14.790039,7.52587888 13.5830078,10.5112305 C10.0478515,10.6928711 7.12011725,13.1850586 6.262207,16.5 L5,16.5 C2.243164,16.5 0,18.743164 0,21.5 L0,51.5 C0,54.256836 2.243164,56.5 5,56.5 L18,56.5 L18,60.5 L14,60.5 L14,62.5 L48,62.5 L48,60.5 L44,60.5 L44,56.5 L57,56.5 C59.756836,56.5 62,54.256836 62,51.5 L62,21.5 C62,18.743164 59.756836,16.5 57,16.5 Z M5,18.5 L6,18.5 C6,22.9111328 9.58886725,26.5 14,26.5 L20,26.5 L20,24.5 L14,24.5 C10.690918,24.5 8,21.809082 8,18.5 C8,15.190918 10.690918,12.5 14,12.5 L15.027832,12.5449219 L15.2490235,11.7978515 C15.9970703,9.26806638 18.3618164,7.5 21,7.5 C21.8442383,7.5 22.6669923,7.67675775 23.4448243,8.02490238 L24.2368164,8.37890625 L24.7001953,7.64599613 C26.7319336,4.42382813 30.2089844,2.5 34,2.5 C39.4501953,2.5 44.1269531,6.57080075 44.8798828,11.9702149 L45.0439453,13.1450195 L46.1738281,12.7861328 C46.7680664,12.5961914 47.381836,12.5 48,12.5 C51.309082,12.5 54,15.190918 54,18.5 C54,21.809082 51.309082,24.5 48,24.5 L42,24.5 L42,26.5 L48,26.5 C52.4111328,26.5 56,22.9111328 56,18.5 L57,18.5 C58.6538086,18.5 60,19.8461914 60,21.5 L60,48.5 L2,48.5 L2,21.5 C2,19.8461914 3.34619138,18.5 5,18.5 Z M42,60.5 L20,60.5 L20,56.5 L42,56.5 L42,60.5 Z M57,54.5 L5,54.5 C3.34619138,54.5 2,53.1538086 2,51.5 L2,50.5 L60,50.5 L60,51.5 C60,53.1538086 58.6538086,54.5 57,54.5 Z" id="Shape" fill-rule="nonzero"></path>
                <path d="M32,40.684082 L32,35.5 L30,35.5 L30,40.684082 C28.8388672,41.0981445 28,42.1982422 28,43.5 C28,45.1538086 29.3461914,46.5 31,46.5 C32.6538086,46.5 34,45.1538086 34,43.5 C34,42.1982422 33.1611328,41.0981445 32,40.684082 Z M31,44.5 C30.4492187,44.5 30,44.0517577 30,43.5 C30,42.9482422 30.4492187,42.5 31,42.5 C31.5507812,42.5 32,42.9482422 32,43.5 C32,44.0517577 31.5507812,44.5 31,44.5 Z" id="Shape" fill-rule="nonzero"></path>
                <polygon id="Path" points="30 18.5 32 18.5 32 32.5 30 32.5"></polygon>
                <path d="M40,22.5 L38,22.5 L38,38.5 L48.184082,38.5 C48.5981445,39.6611327 49.6982423,40.5 51,40.5 C52.6538086,40.5 54,39.1538086 54,37.5 C54,35.8461914 52.6538086,34.5 51,34.5 C49.6982423,34.5 48.5981445,35.3388672 48.184082,36.5 L40,36.5 L40,22.5 Z M51,36.5 C51.5507813,36.5 52,36.9482423 52,37.5 C52,38.0517578 51.5507813,38.5 51,38.5 C50.4492188,38.5 50,38.0517578 50,37.5 C50,36.9482423 50.4492188,36.5 51,36.5 Z" id="Shape" fill-rule="nonzero"></path>
                <polygon id="Path" points="38 19.5 40 19.5 40 21.5 38 21.5"></polygon>
                <path d="M11,40.5 C12.3017577,40.5 13.4018555,39.6611328 13.815918,38.5 L24,38.5 L24,27.5 L22,27.5 L22,36.5 L13.815918,36.5 C13.4018555,35.3388672 12.3017577,34.5 11,34.5 C9.34619137,34.5 8,35.8461914 8,37.5 C8,39.1538086 9.34619137,40.5 11,40.5 Z M11,36.5 C11.5507812,36.5 12,36.9482422 12,37.5 C12,38.0517577 11.5507812,38.5 11,38.5 C10.4492187,38.5 10,38.0517577 10,37.5 C10,36.9482422 10.4492187,36.5 11,36.5 Z" id="Shape" fill-rule="nonzero"></path>
                <polygon id="Path" points="22 19.5 24 19.5 24 26.5 22 26.5"></polygon>
            </g>
        </g>
    </g>
</svg>