<?xml version="1.0" encoding="UTF-8"?>
<svg width="43px" height="63px" viewBox="0 0 43 63" version="1.1" xmlns="http://www.w3.org/2000/svg" xmlns:xlink="http://www.w3.org/1999/xlink">
    <!-- Generator: Sketch 52.4 (67378) - http://www.bohemiancoding.com/sketch -->
    <title>Icon-Feature2</title>
    <desc>Created with Sketch.</desc>
    <g id="Page-1" stroke="none" stroke-width="1" fill="none" fill-rule="evenodd">
        <g id="Coinymous-Landing-Page" transform="translate(-661.000000, -1162.000000)" fill="#FFFFFF">
            <g id="Icon-Feature2" transform="translate(661.000000, 1162.000000)">
                <path d="M41.5727428,29.5898895 L41.7263961,29.5898895 C42.1005083,29.5898895 42.4545787,29.4207 42.691262,29.1289444 C42.9279452,28.8371887 43.0219505,28.4536286 42.9475097,28.0840072 C42.2212358,24.4916153 40.4232067,21.2625961 37.7476362,18.7444611 C37.4732554,18.486351 37.0981889,18.3666687 36.7255083,18.4185791 C36.353782,18.4704895 36.0245251,18.6891861 35.8303112,19.0126648 C35.6618653,19.2938461 35.4409291,19.5279236 35.1732289,19.7100907 C35.1574818,19.7206649 35.1417347,19.7322006 35.1259877,19.7437362 C35.114058,19.7528687 33.9067827,20.6348648 32.5730535,19.6442414 C32.5191317,19.6043473 32.4623468,19.5682983 32.4026989,19.5375366 C32.3950639,19.5336914 31.6124822,19.0612106 31.6520885,17.5755158 C31.6587691,17.318367 31.7585005,17.0150757 31.9422164,16.6944809 C32.1302268,16.367157 32.161721,15.9710999 32.0276323,15.6173401 C31.8935436,15.2640609 31.6081876,14.9900894 31.2507768,14.8723298 C29.8726695,14.4185944 28.446844,14.1431808 26.9985907,14.0451278 L27.0448775,1.25978848 C27.0467862,0.779617371 26.7762229,0.340301514 26.3481889,0.128814697 C25.9196778,-0.0831527402 25.4095681,-0.0302810977 25.03307,0.264839203 C22.6609885,2.1244812 15.7322776,6.48207098 2.66411802,6.77767178 C1.19534576,6.81083673 0,8.04418945 0,9.5270004 L0,22.445961 C0,26.3675994 0.507723722,30.2507858 1.49501728,34.0027542 C1.49931203,34.0176545 1.50265222,34.0325546 1.50742413,34.0474548 C2.6082874,38.2132645 4.30133618,42.2166138 6.55268999,45.9301301 C10.8449596,53.0110931 16.9853627,58.7428665 24.3091819,62.5049285 C24.5449107,62.6260529 24.7830256,62.7471771 25.0230491,62.8678207 C25.19913,62.9562607 25.3895264,63 25.5799228,63 C25.8070623,63 26.0337247,62.9375153 26.2336648,62.8139877 C26.600142,62.5861588 26.8244186,62.1833725 26.8263272,61.7493439 L26.8716597,49.1980819 C28.1552846,49.1202164 29.4236394,48.9034424 30.654774,48.5467986 C31.02316,48.440094 31.3218773,48.1685257 31.4659867,47.8109207 C31.6091419,47.4528351 31.5814653,47.0481262 31.3901146,46.7135925 C30.7783647,45.6451034 31.1438875,44.2742843 32.2041903,43.6576081 L32.2695645,43.6196366 C32.7834917,43.3206711 33.3823575,43.2413635 33.9554555,43.3956527 C34.5290305,43.5504227 35.0081232,43.9210052 35.3049316,44.4386673 L35.3908248,44.5891113 C35.5769265,44.914032 35.8975941,45.1375351 36.2650258,45.1995392 C36.6319802,45.2615433 37.0075239,45.1543579 37.2885853,44.9082642 C40.0691361,42.4699173 41.9855069,39.2812729 42.8296454,35.6869583 C42.9174472,35.3134919 42.8305997,34.9203186 42.5943937,34.6189499 C42.3577105,34.3180619 41.9979137,34.1426238 41.6166437,34.1426238 L41.5727428,34.1426238 C40.3478116,34.1426238 39.3509743,33.1385421 39.3509743,31.9042282 L39.3509743,31.8282852 C39.3509743,30.5939713 40.3473344,29.5898895 41.5727428,29.5898895 Z M26.9570756,25.5105973 C27.6241787,25.6451798 28.2683771,25.8941574 28.8586536,26.2512817 C28.8615168,26.2532043 28.864857,26.255127 28.8677202,26.2570496 C30.6247114,27.3423615 31.7160311,29.2957307 31.7160311,31.3543625 C31.7160311,34.2565384 29.6455301,36.6795044 26.9146063,37.2067794 L26.9570756,25.5105973 Z M11.873291,49.2322083 L15.6110729,49.2322083 C16.2991721,49.2322083 16.8570002,48.6698455 16.8570002,47.9767456 C16.8570002,47.2836457 16.2991721,46.721283 15.6110729,46.721283 L10.000344,46.721283 C7.52089619,43.1274491 5.60309399,39.1514969 4.32662689,34.9236832 L7.71892756,34.9236832 C8.40702675,34.9236832 8.96533203,34.3613205 8.96533203,33.6682206 C8.96533203,32.9751205 8.40702675,32.4127579 7.71892756,32.4127579 L3.64997999,32.4127579 C2.88934884,29.1976776 2.4923318,25.8571472 2.4923318,22.445961 L2.4923318,20.4853821 L6.59706806,20.4853821 C7.28516738,20.4853821 7.84347254,19.9235001 7.84347254,19.2299194 C7.84347254,18.5368195 7.28516738,17.9749374 6.59706806,17.9749374 L2.4923318,17.9749374 L2.4923318,9.5270004 C2.4923318,9.3981857 2.5944491,9.29051968 2.72042566,9.28763583 C13.8908248,9.0348129 20.9092462,5.90192416 24.5434792,3.6476669 L24.5057817,14.1109772 C22.9143732,15.2078247 19.2958873,17.0727539 12.9579302,17.2164688 C11.8441828,17.2414627 10.9380104,18.1763306 10.9380104,19.3000945 L10.9380104,26.4637298 C10.9380104,28.026329 11.0811657,29.596138 11.3636586,31.1289368 C11.4180575,31.4250183 11.4781828,31.7235031 11.5430798,32.0167008 C11.6924383,32.6934586 12.3585871,33.1197967 13.0299848,32.9693527 C13.7023371,32.8189087 14.1255992,32.1483993 13.9762406,31.4716415 C13.9175471,31.2072831 13.8631481,30.938118 13.8139981,30.6708756 C13.5596591,29.2890015 13.4303422,27.8730012 13.4303422,26.4637298 L13.4303422,19.7144165 C18.6889093,19.535614 22.2534735,18.2666931 24.4952836,17.0530472 L24.389826,46.1161422 C21.7252308,44.4848099 19.3994363,42.3002473 17.5999756,39.7273178 C17.2039129,39.1606292 16.4265803,39.0250854 15.8635032,39.4240266 C15.3009033,39.8234482 15.1658603,40.60643 15.5624001,41.1731186 C17.8419079,44.4333801 20.8858642,47.1288757 24.3798052,48.9928436 L24.3411532,59.6830216 C19.4600386,56.9928132 15.2550936,53.426857 11.873291,49.2322083 Z M40.0419367,36.3964005 C39.3376132,38.5333786 38.17233,40.469925 36.6119384,42.0969315 C36.0517246,41.5648499 35.365534,41.1774445 34.6006082,40.9707642 C33.3842662,40.6424789 32.1140026,40.8111877 31.0226829,41.4456482 L30.9577859,41.4836197 C29.1893421,42.5117341 28.3323198,44.5290299 28.6763694,46.4458695 C28.0841842,46.5612259 27.4843639,46.6405334 26.8802491,46.6833114 L26.9055398,39.7494278 C31.0212513,39.2019653 34.2083629,35.6470642 34.2083629,31.3543625 C34.2083629,28.4286346 32.6613326,25.6557541 30.1809304,24.1234359 C30.1732955,24.1181487 30.1651834,24.1133423 30.1570713,24.1085358 C29.1759811,23.5120468 28.0899103,23.1251221 26.9666193,22.9660263 L26.9895241,16.5603791 C27.7439519,16.6194992 28.4912221,16.734375 29.2251309,16.906929 C29.1874335,17.1078415 29.1659601,17.308754 29.1607112,17.5087052 C29.0977228,19.8812027 30.3455588,21.2395248 31.1639293,21.7158508 C33.365656,23.2986374 35.6542304,22.4623031 36.5895109,21.7764129 C36.714533,21.6903763 36.8343062,21.599533 36.9493075,21.502922 C38.4505282,23.1746292 39.5494828,25.1409759 40.1841375,27.2899704 C38.2601319,27.888382 36.8586425,29.6965942 36.8586425,31.8282852 L36.8586425,31.9047088 C36.8581654,33.9835282 38.1914174,35.7547302 40.0419367,36.3964005 Z" id="Shape" fill-rule="nonzero"></path>
                <path d="M15.3075839,35.8907547 L15.2918369,35.851822 C15.0322488,35.2096711 14.3054976,34.9010925 13.6679799,35.1625671 C13.0304621,35.4235611 12.72411,36.1560746 12.9832209,36.7982254 L12.9989679,36.8371582 C13.196045,37.3245392 13.6617765,37.6196594 14.1542304,37.6196594 C14.3102694,37.6196594 14.4696489,37.5898591 14.6233021,37.5268936 C15.2608198,37.265419 15.567172,36.5329056 15.3075839,35.8907547 Z" id="Path"></path>
            </g>
        </g>
    </g>
</svg>