<?xml version="1.0" encoding="UTF-8"?>
<svg width="21px" height="18px" viewBox="0 0 21 18" version="1.1" xmlns="http://www.w3.org/2000/svg" xmlns:xlink="http://www.w3.org/1999/xlink">
    <!-- Generator: Sketch 52.4 (67378) - http://www.bohemiancoding.com/sketch -->
    <title>Icon-Tele</title>
    <desc>Created with Sketch.</desc>
    <g id="Page-1" stroke="none" stroke-width="1" fill="none" fill-rule="evenodd">
        <g id="Coinymous-Landing-Page" transform="translate(-273.000000, -4910.000000)" fill="#8EAEBD" fill-rule="nonzero">
            <g id="Icon-Tele" transform="translate(273.000000, 4910.000000)">
                <path d="M1.1,8.6 L5.7,10.3 L7.5,16 C7.6,16.3 7.9,16.5 8.2,16.4 C8.3,16.4 8.3,16.3 8.4,16.3 L11,14.2 C11.3,14 11.6,14 11.9,14.2 L16.5,17.5 C16.7,17.7 17.1,17.6 17.2,17.4 C17.2,17.3 17.3,17.3 17.3,17.2 L20.7,1 C20.8,0.7 20.6,0.4 20.3,0.4 C20.2,0.4 20.1,0.4 20,0.4 L1.1,7.6 C0.8,7.7 0.7,8 0.8,8.3 C0.9,8.5 1,8.6 1.1,8.6 Z M7.2,9.4 L16.1,3.9 C16.2,3.9 16.3,3.9 16.3,3.9 C16.3,4 16.3,4 16.3,4.1 L9,11 C8.7,11.2 8.6,11.6 8.5,11.9 L8.2,13.8 C8.2,13.9 8.1,14 7.9,14 C7.8,14 7.7,13.9 7.7,13.8 L6.7,10.4 C6.7,10.1 6.9,9.7 7.2,9.4 Z" id="_Compound_Path_"></path>
            </g>
        </g>
    </g>
</svg>