<?xml version="1.0" encoding="UTF-8"?>
<svg width="106px" height="28px" viewBox="0 0 106 28" version="1.1" xmlns="http://www.w3.org/2000/svg" xmlns:xlink="http://www.w3.org/1999/xlink">
    <!-- Generator: Sketch 52.4 (67378) - http://www.bohemiancoding.com/sketch -->
    <title>Logo_Footer</title>
    <desc>Created with Sketch.</desc>
    <g id="Page-1" stroke="none" stroke-width="1" fill="none" fill-rule="evenodd">
        <g id="Coinymous-Landing-Page" transform="translate(-629.000000, -5376.000000)" fill="#FFFFFF">
            <g id="Logo_Footer" transform="translate(629.000000, 5376.000000)">
                <path d="M14,28 C6.28054237,28 0,21.7194576 0,14 C0,6.28054237 6.28054237,0 14,0 C21.7194576,0 28,6.28054237 28,14 C28,21.7194576 21.7194576,28 14,28 Z M14,1.14752542 C6.91315254,1.14752542 1.14752542,6.91315254 1.14752542,14 C1.14752542,21.0868475 6.91315254,26.8524746 14,26.8524746 C21.0868475,26.8524746 26.8524746,21.0868475 26.8524746,14 C26.8524746,6.91315254 21.0868475,1.14752542 14,1.14752542 Z" id="Shape" fill-rule="nonzero"></path>
                <path d="M14.0004784,2.00001101 C12.3320514,1.9977421 10.6817627,2.34605455 9.15656022,3.0223758 C8.85739345,3.15377942 8.56444604,3.29730278 8.27771798,3.4529459 C4.54180122,5.4900209 2,9.45509313 2,13.9999998 C2,20.6173838 7.38404497,25.9999885 14.0004784,25.9999885 C15.669219,26.002306 17.3198298,25.6539944 18.8453534,24.9776237 C19.1445202,24.8459012 19.4369892,24.7023778 19.7227604,24.5470536 C23.459634,22.5099786 26,18.5449064 26,13.9999998 C26,7.3826157 20.6173903,2.00001101 14.0004784,2.00001101 Z M19.170195,23.1964987 L11.7184547,18.4415696 L19.722282,13.3072603 L19.722282,11.3122855 L10.0124387,17.5880839 L10.0124387,19.2653937 L17.3469681,24.008841 C16.2674701,24.3701539 15.1364454,24.5537029 13.9980864,24.5523161 C8.17868676,24.5523161 3.44384643,19.816045 3.44384643,13.9980861 C3.44384643,10.0569344 5.61535701,6.61285204 8.82645617,4.80158715 L16.2810669,9.58282892 L8.27771798,14.6927392 L8.27771798,16.687714 L17.9875613,10.4119156 L17.9875613,8.73317059 L10.6515967,3.98924489 C11.7310947,3.62793197 12.8621194,3.44438299 14.0004784,3.44576973 C19.819878,3.44576973 24.5547183,8.18204086 24.5547183,13.9999998 C24.5542399,17.9425867 22.3812941,21.3866691 19.170195,23.1964987 Z" id="Shape" fill-rule="nonzero"></path>
                <text id="CUSHCASH" font-family="Poppins-ExtraLight, Poppins" font-size="14" font-weight="300">
                    <tspan x="31" y="19">CUSH</tspan>
                    <tspan x="67.862" y="19" font-family="Poppins-Bold, Poppins" font-weight="bold">CASH</tspan>
                </text>
            </g>
        </g>
    </g>
</svg>